<svg xmlns="http://www.w3.org/2000/svg" width="1712.362" height="700.847" viewBox="0 0 1712.362 700.847">
  <g id="Group_2074" data-name="Group 2074" transform="translate(-116.841 -164.485)">
    <g id="Component_35_3" data-name="Component 35 – 3" transform="translate(201.801 226.263)">
      <path id="Path_2842" data-name="Path 2842" d="M674.471-442.135l-14.411-4.354,4.354-14.411-10.756-3.25L649.3-449.739l-14.411-4.354-3.25,10.756,14.411,4.354L641.7-424.573l10.755,3.25,4.354-14.41,14.411,4.354Z" transform="translate(-631.645 464.149)" fill="none" stroke="#f1ce4b" stroke-miterlimit="10" stroke-width="4"/>
    </g>
    <g id="Component_37_3" data-name="Component 37 – 3" transform="matrix(0.259, 0.966, -0.966, 0.259, 1788.758, 800.556)">
      <path id="Path_2962" data-name="Path 2962" d="M674.471-442.135l-14.411-4.354,4.354-14.411-10.756-3.25L649.3-449.739l-14.411-4.354-3.25,10.756,14.411,4.354L641.7-424.573l10.755,3.25,4.354-14.41,14.411,4.354Z" transform="translate(-489.991 622.9) rotate(-15)" fill="none" stroke="#0ae6a6" stroke-miterlimit="10" stroke-width="4"/>
    </g>
    <circle id="Ellipse_55" data-name="Ellipse 55" cx="11.139" cy="11.139" r="11.139" transform="translate(119.341 166.985)" fill="none" stroke="#83e8e8" stroke-miterlimit="10" stroke-width="5"/>
    <g id="Component_36_3" data-name="Component 36 – 3" transform="matrix(0.208, -0.978, 0.978, 0.208, 1771.78, 540.587)">
      <path id="Path_2963" data-name="Path 2963" d="M1055.49-207.18l30.2-19.921L1053.339-243.3Z" transform="translate(-572.787 939.736) rotate(-45)" fill="none" stroke="#6854e4" stroke-linejoin="round" stroke-miterlimit="10" stroke-width="6"/>
    </g>
  </g>
</svg>
